<?xml version="1.0" encoding="UTF-8"?>
<svg id="Layer_1" xmlns="http://www.w3.org/2000/svg" version="1.1" viewBox="0 0 100 100">
  <!-- Generator: Adobe Illustrator 29.6.1, SVG Export Plug-In . SVG Version: 2.1.1 Build 9)  -->
  <rect x="26.7" y="11.94" width="50" height="77" rx="20" ry="20" display="none" fill="#fff"/>
  <path d="M26.7,43.94h50v25c0,11.04-8.96,20-20,20h-10c-11.04,0-20-8.96-20-20v-25h0Z" fill="#b3b3b3"/>
  <rect x="48.06" y="19.25" width="7.28" height="15.38" rx="3.64" ry="3.64" fill="#1c7ad2"/>
  <path d="M46.06,30.98v-8.09c0-2.77,2-5.07,4.64-5.55v-5.41h-4c-11.05,0-20,8.95-20,20v10h24v-5.41c-2.64-.47-4.64-2.77-4.64-5.55Z" fill="#b3b3b3"/>
  <path d="M56.7,11.94h-4v5.43c2.64.47,4.64,2.77,4.64,5.55v8.09c0,2.77-2,5.07-4.64,5.55v5.38h24v-10c0-11.05-8.95-20-20-20Z" fill="#b3b3b3"/>
  <rect x="40.46" y="56.92" width="22.41" height="1.67" transform="translate(109.42 6.09) rotate(90)" display="none" fill="#fff"/>
  <rect x="40.5" y="56.36" width="22.41" height="1.67" display="none" fill="#fff"/>
  <path d="M50.84,2.34l-8.9,15.41c-.38.67.1,1.5.87,1.5h17.8c.77,0,1.25-.83.87-1.5l-8.9-15.41c-.38-.67-1.35-.67-1.73,0Z" display="none" fill="#1c7ad2"/>
  <path d="M53.09,97.14l8.9-15.41c.38-.67-.1-1.5-.87-1.5h-17.8c-.77,0-1.25.83-.87,1.5l8.9,15.41c.38.67,1.35.67,1.73,0Z" display="none" fill="#1c7ad2"/>
  <path d="M87.68,46.03l-15.41-8.9c-.67-.38-1.5.1-1.5.87v17.8c0,.77.83,1.25,1.5.87l15.41-8.9c.67-.38.67-1.35,0-1.73Z" display="none" fill="#1c7ad2"/>
  <path d="M14.43,47.76l15.41,8.9c.67.38,1.5-.1,1.5-.87v-17.8c0-.77-.83-1.25-1.5-.87l-15.41,8.9c-.67.38-.67,1.35,0,1.73Z" display="none" fill="#1c7ad2"/>
</svg>